<svg xmlns="http://www.w3.org/2000/svg" width="1200" height="630" viewBox="0 0 1200 630" role="img" aria-labelledby="title desc">
  <title id="title">On-Page.ai SEO MCP</title>
  <desc id="desc">A branded banner showing AI clients connected to the hosted On-Page.ai MCP server for structured SEO evidence.</desc>
  <defs>
    <linearGradient id="bg" x1="0" y1="0" x2="1" y2="1">
      <stop offset="0" stop-color="#061225"/>
      <stop offset="0.55" stop-color="#0b1740"/>
      <stop offset="1" stop-color="#111827"/>
    </linearGradient>
    <linearGradient id="accent" x1="0" y1="0" x2="1" y2="1">
      <stop offset="0" stop-color="#6f87ff"/>
      <stop offset="1" stop-color="#f9b233"/>
    </linearGradient>
    <filter id="softShadow" x="-20%" y="-20%" width="140%" height="140%">
      <feDropShadow dx="0" dy="24" stdDeviation="24" flood-color="#000000" flood-opacity="0.32"/>
    </filter>
  </defs>

  <rect width="1200" height="630" fill="url(#bg)"/>

  <g opacity="0.16">
    <path d="M0 110H1200" stroke="#ffffff"/>
    <path d="M0 230H1200" stroke="#ffffff"/>
    <path d="M0 350H1200" stroke="#ffffff"/>
    <path d="M0 470H1200" stroke="#ffffff"/>
    <path d="M190 0V630" stroke="#ffffff"/>
    <path d="M390 0V630" stroke="#ffffff"/>
    <path d="M590 0V630" stroke="#ffffff"/>
    <path d="M790 0V630" stroke="#ffffff"/>
    <path d="M990 0V630" stroke="#ffffff"/>
  </g>

  <g transform="translate(88 80)">
    <g transform="translate(0 6)">
      <rect x="0" y="23" width="9" height="24" rx="2" fill="#5570e8"/>
      <rect x="14" y="10" width="9" height="37" rx="2" fill="#7b91ff"/>
      <rect x="28" y="0" width="9" height="47" rx="2" fill="#f9b233"/>
      <text x="52" y="36" fill="#ffffff" font-family="-apple-system,BlinkMacSystemFont,Segoe UI,sans-serif" font-size="26" font-weight="700">On-Page.ai</text>
    </g>

    <text x="0" y="140" fill="#ffffff" font-family="-apple-system,BlinkMacSystemFont,Segoe UI,sans-serif" font-size="70" font-weight="800" letter-spacing="-2">
      SEO evidence for
    </text>
    <text x="0" y="220" fill="#ffffff" font-family="-apple-system,BlinkMacSystemFont,Segoe UI,sans-serif" font-size="70" font-weight="800" letter-spacing="-2">
      AI agents.
    </text>
    <text x="0" y="282" fill="#b8c1d9" font-family="-apple-system,BlinkMacSystemFont,Segoe UI,sans-serif" font-size="25" font-weight="500">
      Hosted MCP server for entity gaps, competitor coverage,
    </text>
    <text x="0" y="320" fill="#b8c1d9" font-family="-apple-system,BlinkMacSystemFont,Segoe UI,sans-serif" font-size="25" font-weight="500">
      internal links, and structured on-page audits.
    </text>

    <g transform="translate(0 380)">
      <rect width="242" height="54" rx="12" fill="#455dd3"/>
      <text x="26" y="35" fill="#ffffff" font-family="-apple-system,BlinkMacSystemFont,Segoe UI,sans-serif" font-size="18" font-weight="700">Connect MCP server</text>
    </g>
    <g transform="translate(268 380)">
      <rect width="228" height="54" rx="12" fill="#ffffff" opacity="0.1" stroke="#ffffff" stroke-opacity="0.18"/>
      <text x="24" y="35" fill="#ffffff" font-family="-apple-system,BlinkMacSystemFont,Segoe UI,sans-serif" font-size="18" font-weight="700">Run one real scan</text>
    </g>
  </g>

  <g transform="translate(710 96)" filter="url(#softShadow)">
    <rect width="392" height="438" rx="24" fill="#fbfaf9"/>
    <rect x="24" y="24" width="344" height="54" rx="14" fill="#111827"/>
    <circle cx="54" cy="51" r="8" fill="#22c55e"/>
    <circle cx="82" cy="51" r="8" fill="#f9b233"/>
    <circle cx="110" cy="51" r="8" fill="#ef4444"/>
    <text x="136" y="58" fill="#ffffff" font-family="ui-monospace,SFMono-Regular,Menlo,monospace" font-size="15" font-weight="700">on-page-seo MCP</text>

    <g transform="translate(32 112)">
      <text x="0" y="0" fill="#455dd3" font-family="ui-monospace,SFMono-Regular,Menlo,monospace" font-size="15" font-weight="700">scan_page</text>
      <text x="0" y="35" fill="#111827" font-family="-apple-system,BlinkMacSystemFont,Segoe UI,sans-serif" font-size="21" font-weight="800">Structured SEO report</text>
      <text x="0" y="72" fill="#5f5c56" font-family="-apple-system,BlinkMacSystemFont,Segoe UI,sans-serif" font-size="15">keyword: "target keyword"</text>
      <text x="0" y="99" fill="#5f5c56" font-family="-apple-system,BlinkMacSystemFont,Segoe UI,sans-serif" font-size="15">url: https://example.com/page</text>
    </g>

    <g transform="translate(32 252)">
      <rect width="328" height="42" rx="10" fill="#eef2ff"/>
      <text x="18" y="27" fill="#223248" font-family="-apple-system,BlinkMacSystemFont,Segoe UI,sans-serif" font-size="15" font-weight="700">Entity gaps</text>
      <text x="242" y="27" fill="#455dd3" font-family="ui-monospace,SFMono-Regular,Menlo,monospace" font-size="14" font-weight="700">12</text>

      <rect y="56" width="328" height="42" rx="10" fill="#fff7ed"/>
      <text x="18" y="83" fill="#223248" font-family="-apple-system,BlinkMacSystemFont,Segoe UI,sans-serif" font-size="15" font-weight="700">Competitor patterns</text>
      <text x="242" y="83" fill="#d97706" font-family="ui-monospace,SFMono-Regular,Menlo,monospace" font-size="14" font-weight="700">SERP</text>

      <rect y="112" width="328" height="42" rx="10" fill="#ecfdf5"/>
      <text x="18" y="139" fill="#223248" font-family="-apple-system,BlinkMacSystemFont,Segoe UI,sans-serif" font-size="15" font-weight="700">Internal-link candidates</text>
      <text x="242" y="139" fill="#059669" font-family="ui-monospace,SFMono-Regular,Menlo,monospace" font-size="14" font-weight="700">ready</text>
    </g>
  </g>
</svg>
